# xmcd
#
# Track frame offsets: 
#        150
#        38481
#        66276
#        85032
#        106396
#        125218
#        146842
#        170180
#        183937
#        207346
#        238179
#
# Disc length: 3652 seconds
#
# Revision: 1
# Processed by: cddbd v1.5.2PL0 Copyright (c) Steve Scherf et al.
# Submitted via: ExactAudioCopyFreeDBPlugin 1.0
#
DISCID=a30e420b
DTITLE=Various Artist - Swing Time 100 - Jam Sessions 10 - 1957
DYEAR=1957
DGENRE=Jazz
TTITLE0=Rex Stewart and Cootie Williams - Alphonse And Gaston
TTITLE1=Rex Stewart and Cootie Williams - I'm Beginning To See The Light
TTITLE2=Rex Stewart and Cootie Williams - Do Nothin' Till You Hear
TTITLE3=Rex Stewart and Cootie Williams - I Knew You When
TTITLE4=Rex Stewart and Cootie Williams - I Gotta Right To Sing The Blue
TTITLE4=s
TTITLE5=Rex Stewart and Cootie Williams - Walkin' My Baby Back Home
TTITLE6=Rex Stewart and Cootie Williams - When Your Lover Has Gone
TTITLE7=Count Basie All Stars - Fast And Happy Blues
TTITLE8=Count Basie All Stars - I Left My Baby
TTITLE9=Count Basie All Stars - Dickie's Dream
TTITLE10=Billie Holiday With Mal Waldron All Stars - Fine And Mellow
EXTD=YEAR: 2006
EXTT0=
EXTT1=
EXTT2=
EXTT3=
EXTT4=
EXTT5=
EXTT6=
EXTT7=
EXTT8=
EXTT9=
EXTT10=
PLAYORDER=
